<svg xmlns="http://www.w3.org/2000/svg" viewBox="0 0 19.21 18.37"><defs><style>.cls-1{fill:#fff;}</style></defs><g id="Layer_2" data-name="Layer 2"><g id="YOUR_DESIGN_LAYER_ONLY_THIS_LAYER_WILL_BE_PRINTED_" data-name="YOUR DESIGN LAYER (ONLY THIS LAYER WILL BE PRINTED)"><path class="cls-1" d="M18.53.68a2.31,2.31,0,0,0-3.28,0h0a2.37,2.37,0,0,0-.44.61A4.38,4.38,0,0,1,16,2.14a.52.52,0,0,0,.73,0h0a.24.24,0,0,1,.36,0,.25.25,0,0,1,0,.36h0a1,1,0,0,1-1.46,0,4.12,4.12,0,0,0-5.83,0l-.18.19L9.43,2.5a4.13,4.13,0,0,0-5.84,0,1,1,0,0,1-1.45,0h0a.25.25,0,0,1,0-.36.25.25,0,0,1,.18-.08.27.27,0,0,1,.18.08h0a.52.52,0,0,0,.73,0A4.38,4.38,0,0,1,4.4,1.29,2.37,2.37,0,0,0,4,.68H4A2.32,2.32,0,0,0,.68,4h0A3.08,3.08,0,0,0,5.05,4,2.06,2.06,0,0,1,8.57,5.42V16.3H6.51v2.07H12.7V16.3H10.63V5.42A2.07,2.07,0,0,1,14.16,4a3.08,3.08,0,0,0,4.37,0h0a2.33,2.33,0,0,0,0-3.28"/></g></g></svg>