<svg xmlns="http://www.w3.org/2000/svg" viewBox="0 0 22.06 17.21"><defs><style>.cls-1{fill:#fff;}</style></defs><g id="Layer_2" data-name="Layer 2"><g id="YOUR_DESIGN_LAYER_ONLY_THIS_LAYER_WILL_BE_PRINTED_" data-name="YOUR DESIGN LAYER (ONLY THIS LAYER WILL BE PRINTED)"><path class="cls-1" d="M13.54,9.85h-5A8.45,8.45,0,0,0,8.6,8.6a8.66,8.66,0,0,0-.09-1.25h5a8.66,8.66,0,0,0-.09,1.25,8.45,8.45,0,0,0,.09,1.25M22.06,2.5V0a8.6,8.6,0,0,0-7.74,4.85H7.74A8.61,8.61,0,0,0,0,0V2.5A6.1,6.1,0,0,1,4.81,4.85H0v2.5H6A5.77,5.77,0,0,1,6.1,8.6,5.7,5.7,0,0,1,6,9.85H0v2.51H4.81A6.12,6.12,0,0,1,0,14.7v2.51a8.63,8.63,0,0,0,7.74-4.85h6.58a8.62,8.62,0,0,0,7.74,4.85V14.7a6.12,6.12,0,0,1-4.81-2.34h4.81V9.85h-6A6.38,6.38,0,0,1,16,8.6a6.46,6.46,0,0,1,.13-1.25h6V4.85H17.25A6.1,6.1,0,0,1,22.06,2.5"/></g></g></svg>