<svg xmlns="http://www.w3.org/2000/svg" viewBox="0 0 20.29 20.29"><defs><style>.cls-1{fill:#fff;}</style></defs><g id="Layer_2" data-name="Layer 2"><g id="YOUR_DESIGN_LAYER_ONLY_THIS_LAYER_WILL_BE_PRINTED_" data-name="YOUR DESIGN LAYER (ONLY THIS LAYER WILL BE PRINTED)"><path class="cls-1" d="M11.3,15.6V11.36h4.24A5.52,5.52,0,0,1,11.3,15.6ZM4.74,11.36H9V15.6a5.54,5.54,0,0,1-4.25-4.24ZM9,4.8V9H4.74A5.56,5.56,0,0,1,9,4.8ZM15.54,9H11.3V4.8A5.53,5.53,0,0,1,15.54,9Zm4.75,0h-2.4A7.85,7.85,0,0,0,11.3,2.45V0H9V2.45A7.85,7.85,0,0,0,2.4,9H0v2.32H2.4A7.85,7.85,0,0,0,9,18v2.34H11.3V18a7.85,7.85,0,0,0,6.59-6.59h2.4Z"/></g></g></svg>