<svg xmlns="http://www.w3.org/2000/svg" viewBox="0 0 32.21 18.8"><defs><style>.cls-1{fill:#fff;}</style></defs><g id="Layer_2" data-name="Layer 2"><g id="YOUR_DESIGN_LAYER_ONLY_THIS_LAYER_WILL_BE_PRINTED_" data-name="YOUR DESIGN LAYER (ONLY THIS LAYER WILL BE PRINTED)"><path class="cls-1" d="M32.21,8.54H24.75L31.6,0H.61L7.46,8.54H0v1.72H7.46L.61,18.8h31l-6.85-8.54h7.46ZM23,10.77,28,17.09H23.37l-2.74-3.42Zm.41-9.06H28L23,8l-2.33-2.9Zm-2.19,8.55-1.65,2-1.64-2ZM19.53,15l1.65,2.05H17.89Zm0-8.54,1.65,2H17.89Zm1.65-4.79L19.53,3.76l-1.64-2Zm-5.07,9.06,2.33,2.9-2.33,2.91-2.33-2.91Zm0-8.54,2.33,2.9L16.11,8l-2.33-2.9Zm-1.79,8-1.64,2-1.64-2ZM12.68,6.5l1.64,2H11Zm1.64-4.79L12.68,3.76,11,1.71ZM12.68,15l1.64,2.05H11ZM9.25,10.77l2.33,2.9L8.84,17.09H4.18ZM8.84,1.71l2.74,3.42L9.25,8,4.18,1.71Z"/></g></g></svg>