<svg xmlns="http://www.w3.org/2000/svg" viewBox="0 0 14.82 22.27"><defs><style>.cls-1{fill:#fff;}</style></defs><g id="Layer_2" data-name="Layer 2"><g id="YOUR_DESIGN_LAYER_ONLY_THIS_LAYER_WILL_BE_PRINTED_" data-name="YOUR DESIGN LAYER (ONLY THIS LAYER WILL BE PRINTED)"><path class="cls-1" d="M13.28,16.5a3.1,3.1,0,0,1,1.13,4.22,3,3,0,0,1-1.88,1.44,3.09,3.09,0,0,1-.8.11,3,3,0,0,1-1.54-.42,2.78,2.78,0,0,1-1-3.79h0l.15-.26L11.46,19l-.15.25a.36.36,0,0,0,0,.24.3.3,0,0,0,.15.18h0a.59.59,0,0,0,.46.07.64.64,0,0,0,.38-.29.62.62,0,0,0-.23-.85L3.71,13.83h0a7.41,7.41,0,1,1,7.5-.05h0l0,0,0,0h0l-.62.36L8,12.76l1.89-1.09a4.94,4.94,0,1,0-5,0l8.34,4.81ZM2.78,18.64a.62.62,0,0,0-.23.85.66.66,0,0,0,.38.29.61.61,0,0,0,.47-.07h0a.32.32,0,0,0,.11-.42h0L3.36,19l2.13-1.23.16.27a2.77,2.77,0,0,1-1,3.79h0a3,3,0,0,1-1.54.42,3.09,3.09,0,0,1-.8-.11A3.06,3.06,0,0,1,.41,20.72,3.1,3.1,0,0,1,1.54,16.5h0l2.78-1.6,2.47,1.43Z"/></g></g></svg>