<svg xmlns="http://www.w3.org/2000/svg" viewBox="0 0 17.96 17.96"><defs><style>.cls-1{fill:#fff;}</style></defs><g id="Layer_2" data-name="Layer 2"><g id="YOUR_DESIGN_LAYER_ONLY_THIS_LAYER_WILL_BE_PRINTED_" data-name="YOUR DESIGN LAYER (ONLY THIS LAYER WILL BE PRINTED)"><path class="cls-1" d="M10.87,12.93a3.85,3.85,0,0,0,.62-.36l3.28,3.28a10.83,10.83,0,0,1-1,.75A9,9,0,0,1,9,18v-2a6.85,6.85,0,0,0,2.5-.47l-.4-.39a6.47,6.47,0,0,1-2.1.35A6.39,6.39,0,0,1,5,14l1.46-1.46a4.32,4.32,0,0,0,2.5.79A4.25,4.25,0,0,0,10.87,12.93ZM16.6,4.22A9,9,0,0,1,18,9h-2a6.8,6.8,0,0,0-.47-2.49l-.39.4A6.41,6.41,0,0,1,14,13l-1.4-1.41H5.33L2.11,14.77a10.83,10.83,0,0,1-.75-1A9,9,0,0,1,0,9H2.05a6.84,6.84,0,0,0,.46,2.5l.4-.4A6.47,6.47,0,0,1,2.56,9,6.38,6.38,0,0,1,3.93,5L5.39,6.48A4.39,4.39,0,0,0,4.6,9,4.34,4.34,0,0,0,5,10.79L8.56,4.62A4.41,4.41,0,0,0,7.09,5a5.15,5.15,0,0,0-.61.36L3.2,2.11a9.56,9.56,0,0,1,1-.75A9,9,0,0,1,9,0V2.05a6.79,6.79,0,0,0-2.49.46l.4.4a6.43,6.43,0,0,1,6.06,1L11.49,5.39a4.49,4.49,0,0,0-2.08-.77L13,10.79A4.35,4.35,0,0,0,13.36,9a4.25,4.25,0,0,0-.43-1.89,3.37,3.37,0,0,0-.36-.61L15.85,3.2A9.56,9.56,0,0,1,16.6,4.22ZM8.11,9.5H9.86L9,8Z"/></g></g></svg>