<svg xmlns="http://www.w3.org/2000/svg" viewBox="0 0 19.36 19.28"><defs><style>.cls-1{fill:#fff;}</style></defs><g id="Layer_2" data-name="Layer 2"><g id="YOUR_DESIGN_LAYER_ONLY_THIS_LAYER_WILL_BE_PRINTED_" data-name="YOUR DESIGN LAYER (ONLY THIS LAYER WILL BE PRINTED)"><path class="cls-1" d="M4,2.2A1.76,1.76,0,0,0,4,5.72H5.72V4A1.76,1.76,0,0,0,4,2.2Zm9.68,3.52H15.4A1.76,1.76,0,1,0,13.64,4ZM7.92,11.36h3.52V7.92H7.92Zm-4,2.2a1.76,1.76,0,1,0,1.76,1.76V13.56Zm9.68,0v1.76a1.76,1.76,0,1,0,1.76-1.76Zm1.76,5.72a4,4,0,0,1-4-4V13.56H7.92v1.76a4,4,0,1,1-4-4H5.72V7.92H4a4,4,0,1,1,4-4V5.72h3.52V4a4,4,0,1,1,4,4H13.64v3.44H15.4a4,4,0,0,1,0,7.92Z"/></g></g></svg>