<svg xmlns="http://www.w3.org/2000/svg" viewBox="0 0 17.93 16.6"><defs><style>.cls-1{fill:#fff;}</style></defs><g id="Layer_2" data-name="Layer 2"><g id="YOUR_DESIGN_LAYER_ONLY_THIS_LAYER_WILL_BE_PRINTED_" data-name="YOUR DESIGN LAYER (ONLY THIS LAYER WILL BE PRINTED)"><path class="cls-1" d="M14.2,12.3H7.46l1.06-1.84H11L9.77,8.3l1.06-1.84ZM7.1,0,9.41,4,8.34,5.84,7.1,3.68,3.19,10.46H5.68L4.61,12.3H0ZM8.34,10.14,7.1,8,5.86,10.14H3.73L7.1,4.31l3.37,5.83Zm1.43,2.47h2.12l2.31,4H0l2.31-4H4.43L3.19,14.76H11ZM8.52,6.15l2.31-4,7.1,12.3H13.32l-1.07-1.84h2.49L10.83,5.84,9.59,8h0L8.52,6.15Zm-4.79,8.3L7.1,8.62l1.06,1.84h0L6.92,12.61H9.41l1.06,1.84Z"/></g></g></svg>