<svg xmlns="http://www.w3.org/2000/svg" viewBox="0 0 16.71 21.48"><defs><style>.cls-1{fill:#fff;}</style></defs><g id="Layer_2" data-name="Layer 2"><g id="YOUR_DESIGN_LAYER_ONLY_THIS_LAYER_WILL_BE_PRINTED_" data-name="YOUR DESIGN LAYER (ONLY THIS LAYER WILL BE PRINTED)"><path class="cls-1" d="M9.55,13.47V11.93h1.54a3,3,0,0,1-1.54,1.54ZM5.62,11.93H7.16v1.54a3,3,0,0,1-1.54-1.54ZM7.16,8V9.54H5.62A3,3,0,0,1,7.16,8Zm3.93,1.54H9.55V8a3,3,0,0,1,1.54,1.54Zm4.43,0H13.59a5.4,5.4,0,0,0-4-4V0H7.16V5.5a5.4,5.4,0,0,0-4,4H0v6.57H2.39V11.93h.73a5.4,5.4,0,0,0,4,4v5.51H9.55V16a5.4,5.4,0,0,0,4-4h.73v4.18h2.39V9.54Z"/></g></g></svg>