<svg xmlns="http://www.w3.org/2000/svg" viewBox="0 0 20.13 20.14"><defs><style>.cls-1{fill:#fff;}</style></defs><g id="Layer_2" data-name="Layer 2"><g id="YOUR_DESIGN_LAYER_ONLY_THIS_LAYER_WILL_BE_PRINTED_" data-name="YOUR DESIGN LAYER (ONLY THIS LAYER WILL BE PRINTED)"><path class="cls-1" d="M20.13,10.16c0,.25,0,.49,0,.73h0a10.11,10.11,0,0,1-.94,3.52h0a9.91,9.91,0,0,1-.79,1.37l-1.54-1.54L10.59,8l1.62-1.62,5.43,5.42a7.76,7.76,0,0,0,0-3.29L16.42,9.79,14.8,8.16l2-2h0L18.46,4.5a10.38,10.38,0,0,1,.59,1h0a9.8,9.8,0,0,1,1,3.14v0a9.45,9.45,0,0,1,.09,1.07v.4ZM6,3.43,4.36,1.77A11,11,0,0,1,5.73,1h0a10.1,10.1,0,0,1,8.68,0h0a11.06,11.06,0,0,1,1.51.89L14.84,2.94l-.58.58L8,9.78,6.39,8.16,12,2.54l-.5-.11h0l-.19,0h-.08l-.15,0-.51,0h-.47l-.6,0H9.15L9,2.37l-.18,0h0l-.48.1L9.78,4,8.16,5.57Zm8.71,13.88,1,1.05a9.91,9.91,0,0,1-1.37.79h0a10.1,10.1,0,0,1-8.68,0h0a10.69,10.69,0,0,1-1.23-.69l1.66-1.67h0l6.2-6.2L14,12.22,8.52,17.68l.08,0h0l.21,0h.09l.13,0,.13,0h.08c.33,0,.68,0,1,0h.23l.53,0,.12,0h.08l.17,0h.06l.22,0h0l.12,0L10.6,16.42l1.62-1.62,1.9,1.9.24.24ZM4,10.59l1.62,1.62-2.05,2-.58.58L1.87,15.92A10,10,0,0,1,1,14.41H1A10.1,10.1,0,0,1,1,5.73H1a11,11,0,0,1,.79-1.37l1.06,1,.49.49L3.43,6l6.36,6.35L8.16,14,2.5,8.32c0,.16-.07.32-.1.48v0a1.1,1.1,0,0,0,0,.18s0,.08,0,.12,0,.07,0,.11,0,.1,0,.15v.05c0,.2,0,.4,0,.6h0v.23c0,.07,0,.13,0,.19v0c0,.17,0,.34,0,.51s0,.1,0,.15v.08l0,.19v0c0,.17.07.34.11.5Z"/></g></g></svg>