<svg xmlns="http://www.w3.org/2000/svg" viewBox="0 0 22.44 22.44"><defs><style>.cls-1{fill:#ad222b;}</style></defs><g id="Layer_2" data-name="Layer 2"><g id="YOUR_DESIGN_LAYER_ONLY_THIS_LAYER_WILL_BE_PRINTED_" data-name="YOUR DESIGN LAYER (ONLY THIS LAYER WILL BE PRINTED)"><path class="cls-1" d="M11.22,0,6.47,4.75,2.59.86.86,2.59,4.75,6.47,0,11.22,4.75,16,.86,19.85l1.73,1.73,3.88-3.89,4.75,4.75L16,17.69l3.88,3.89,1.73-1.73L17.69,16l4.75-4.75L17.69,6.47l3.89-3.88L19.85.86,16,4.75Zm-3,6.47,3-3,3,3-3,3ZM13,11.22l3-3,3,3-3,3Zm-9.5,0,3-3,3,3-3,3ZM8.2,16l3-3,3,3-3,3Z"/></g></g></svg>