<svg xmlns="http://www.w3.org/2000/svg" viewBox="0 0 18.51 18.51"><defs><style>.cls-1{fill:#fff;}</style></defs><g id="Layer_2" data-name="Layer 2"><g id="YOUR_DESIGN_LAYER_ONLY_THIS_LAYER_WILL_BE_PRINTED_" data-name="YOUR DESIGN LAYER (ONLY THIS LAYER WILL BE PRINTED)"><polygon class="cls-1" points="10.04 0 6.66 3.39 7.77 4.5 8.47 3.8 8.47 7.36 3.27 2.15 3.27 6.95 4.84 6.95 4.84 5.96 7.36 8.47 0 8.47 3.39 11.86 4.5 10.74 3.8 10.04 7.36 10.04 2.15 15.25 6.95 15.25 6.95 13.67 5.96 13.67 8.47 11.16 8.47 18.51 11.86 15.13 10.74 14.01 10.04 14.71 10.04 11.16 15.25 16.36 15.25 11.57 13.67 11.57 13.67 12.56 11.16 10.04 18.51 10.04 15.13 6.66 14.01 7.77 14.71 8.47 11.16 8.47 16.36 3.27 11.57 3.27 11.57 4.84 12.56 4.84 10.04 7.36 10.04 0"/></g></g></svg>