<svg xmlns="http://www.w3.org/2000/svg" viewBox="0 0 17.93 21.79"><defs><style>.cls-1{fill:#fff;}</style></defs><g id="Layer_2" data-name="Layer 2"><g id="YOUR_DESIGN_LAYER_ONLY_THIS_LAYER_WILL_BE_PRINTED_" data-name="YOUR DESIGN LAYER (ONLY THIS LAYER WILL BE PRINTED)"><path class="cls-1" d="M15.39,3.29a12.17,12.17,0,0,1,2.54,7.61,12.17,12.17,0,0,1-2.54,7.6A8.2,8.2,0,0,1,9,21.79,8.23,8.23,0,0,1,2.53,18.5,12.22,12.22,0,0,1,0,10.9,12.23,12.23,0,0,1,2.53,3.29,8.23,8.23,0,0,1,9,0,8.2,8.2,0,0,1,15.39,3.29ZM9,19.31c3.58,0,6.49-3.78,6.49-8.41S12.54,2.48,9,2.48,2.48,6.26,2.48,10.9,5.39,19.31,9,19.31Zm2.69-9.66h2.2v2.49h-2.2L10.19,13.6l0,2.17-2.49,0,0-2.18L6.23,12.14H4.08V9.65H6.23L7.72,8.16V6h2.49v2.2ZM8.94,11.33l.44-.43-.44-.44-.44.44Z"/></g></g></svg>