<svg xmlns="http://www.w3.org/2000/svg" viewBox="0 0 21.97 42.6"><defs><style>.cls-1{fill:#ad222b;}</style></defs><g id="Layer_2" data-name="Layer 2"><g id="YOUR_DESIGN_LAYER_ONLY_THIS_LAYER_WILL_BE_PRINTED_" data-name="YOUR DESIGN LAYER (ONLY THIS LAYER WILL BE PRINTED)"><path class="cls-1" d="M11,42.6c-.08-.42-.17-.84-.26-1.27q-.62-2.92-1.22-5.86C9,33,8.43,30.48,7.91,28A.19.19,0,0,1,8,27.72a5.83,5.83,0,0,0,1.39-1A.49.49,0,0,0,9.49,26a2.67,2.67,0,0,0-.28-.32.59.59,0,0,0,0-.08l.84-1.38a1.94,1.94,0,0,0,.31-1s0-.1-.07-.13a.68.68,0,0,1-.28-.75c.06-.21.15-.29.47-.41,0-.27,0-.54,0-.81a.2.2,0,0,0-.06-.12c-.32-.42-.63-.84-1-1.26a.18.18,0,0,1,0-.19l1.23-3.43c0-.07.05-.1.13-.09s.29,0,.38,0,.11.22.16.34c.37,1.05.75,2.1,1.13,3.14a.21.21,0,0,1,0,.23l-.93,1.22a.57.57,0,0,0-.08.23v.73a.53.53,0,0,1,.48.49.68.68,0,0,1-.31.68.17.17,0,0,0-.06.12,2,2,0,0,0,.32,1c.29.45.56.91.83,1.36a.59.59,0,0,1,0,.08,1.86,1.86,0,0,0-.19.22,2,2,0,0,0-.2.41.41.41,0,0,0,.14.38A6.14,6.14,0,0,0,14,27.73a.17.17,0,0,1,.1.23l-1.71,8.2q-.66,3.15-1.31,6.3s0,.09,0,.14Zm0-5.22h0a.06.06,0,0,0,0,0l1.23-5.89c.22-1,.43-2,.64-3.06,0-.1,0-.16-.07-.21s-.45-.29-.67-.45l-.67-.52s-.06-.08-.09-.11l.39-.22c-.33-.12-.44-.26-.42-.47s.11-.26.39-.32c0-.1-.1-.14-.27-.16a.14.14,0,0,1-.11-.06c0-.07,0-.13.09-.15s.12-.08.13-.17a1.79,1.79,0,0,0-.16-.82c-.11-.3-.23-.6-.34-.91A2,2,0,0,1,11,23.5c-.1.28-.19.56-.29.85s-.16.39-.23.59a1.3,1.3,0,0,0-.08.62c0,.08,0,.13.11.15a.12.12,0,0,1,.12.14c0,.1-.09.06-.14.07s-.22,0-.26.16c.27.05.38.13.4.31s-.08.34-.41.49l.41.22a6.19,6.19,0,0,1-.5.42c-.32.23-.64.44-1,.65a.15.15,0,0,0-.08.19c.58,2.76,1.15,5.51,1.73,8.27Z"/><path class="cls-1" d="M11.39,12.47l.7.14h.05c.17,0,.34.1.4-.17a.7.7,0,0,0,.76.24,1.06,1.06,0,0,0,.59-.55l.31.22c.2.14.26.13.42,0l.53-.63a.16.16,0,0,1,.18-.06L21.85,13l.12,0-.4.09-6.18,1.42a.24.24,0,0,1-.28-.1c-.17-.21-.35-.42-.53-.62s-.18-.15-.33-.05l-.33.23h0c-.16-.22-.3-.46-.59-.54a.88.88,0,0,0-.74.22s0,0,0,0c-.07-.19-.2-.18-.37-.14s-.46.1-.7.14c-.07,0-.08.05-.1.12a.85.85,0,0,0,.25.68.24.24,0,0,1,0,.29c-.16.27-.3.55-.45.83,0,.1-.12.08-.2.08s-.16,0-.21-.08c-.15-.3-.32-.6-.48-.91a.23.23,0,0,1,0-.14.86.86,0,0,1,.13-.2.72.72,0,0,0,.15-.56c0-.07,0-.1-.08-.11l-.88-.17a.31.31,0,0,0-.12.05s-.05.09-.09.14a.89.89,0,0,0-.76-.23c-.28.08-.42.31-.58.55l-.34-.23c-.17-.13-.23-.12-.37,0s-.35.4-.52.61a.21.21,0,0,1-.26.09l-3.64-.84L.11,13.08l-.11,0,.11,0,5.54-1.18,1-.21a.19.19,0,0,1,.21.07l.53.63c.14.17.21.18.4,0l.29-.2h0a1.09,1.09,0,0,0,.59.53.7.7,0,0,0,.74-.22l0,0c.06.16.17.17.32.14l.72-.15.1,0a.77.77,0,0,0-.19-.71.31.31,0,0,1,0-.42,8.4,8.4,0,0,0,.42-.78c.05-.1.12-.09.21-.09s.14,0,.18.09c.16.31.33.61.49.91a.12.12,0,0,1,0,.17l-.12.19A.71.71,0,0,0,11.39,12.47Zm7.15.58h0l-.11,0-2.83-.59a.78.78,0,0,0-.35-.06c-.1,0-.15.19-.22.29l-.21.26-.07-.1c-.06,0-.12.1-.17.09s-.11-.06-.17-.1l-.06.13c-.08-.14-.19-.11-.3-.08l-.52.19.4.15c.15.06.29.14.43,0l.06.13c.12-.17.19-.17.32,0l.09-.13.34.49a.14.14,0,0,0,.16.07l2.92-.61ZM8.42,13c-.14,0-.27-.11-.41-.15s-.28-.13-.41,0l0-.11c-.06,0-.12.1-.17.09s-.11-.06-.17-.1l-.07.11L7,12.75l-.21-.32a.14.14,0,0,0-.17-.07l-1.92.4L3.39,13l.13,0,2.92.61c.29.06.28.05.45-.19l.25-.33.07.11c.06,0,.11-.1.17-.1s.11.06.17.1l.06-.12c.08.14.19.11.3.07A5.27,5.27,0,0,0,8.42,13Z"/><path class="cls-1" d="M11.28,9.14h.43c0,.25,0,.49,0,.73,0,0,0,.05-.07.07l-.59.22h-.13l-.57-.22s-.09-.06-.09-.1V9.15h.42A.59.59,0,0,0,10.62,9c-.35-.7-.69-1.4-1-2.1a.28.28,0,0,1,0-.18L10.94.11A.27.27,0,0,1,11,0c0,.24.11.48.16.72.41,2,.83,4,1.24,6a.36.36,0,0,1,0,.25L11.34,9Zm-.16-1.71.16-.14a3.37,3.37,0,0,1,.31-.21c.08,0,.09-.09.07-.18-.21-1-.43-2-.64-3.05l0-.13s0,0,0,.06c-.21,1-.42,2-.64,3.05a.23.23,0,0,0,.13.3c.14.08.27.19.41.29l-.11.08c0,.07.11.12.1.18s-.07.11-.11.16l.09,0c0,.09-.07.18-.05.25s.13.38.21.59c0-.14.1-.26.14-.38s.16-.31,0-.45l.15-.06c-.19-.1-.19-.17,0-.32Z"/></g></g></svg>