<svg xmlns="http://www.w3.org/2000/svg" viewBox="0 0 17.98 17.98"><defs><style>.cls-1{fill:#fff;}</style></defs><g id="Layer_2" data-name="Layer 2"><g id="YOUR_DESIGN_LAYER_ONLY_THIS_LAYER_WILL_BE_PRINTED_" data-name="YOUR DESIGN LAYER (ONLY THIS LAYER WILL BE PRINTED)"><path class="cls-1" d="M10.11,15.84a6.93,6.93,0,0,1,5.73-5.73,7,7,0,0,1-5.73,5.73m-8-5.73a6.93,6.93,0,0,1,5.73,5.73,7,7,0,0,1-5.73-5.73m5.73-8A6.92,6.92,0,0,1,2.14,7.87,7,7,0,0,1,7.87,2.14M12.78,9A9.11,9.11,0,0,0,9,12.78,9.08,9.08,0,0,0,5.19,9,9,9,0,0,0,9,5.19,9.08,9.08,0,0,0,12.78,9m3.06-1.12a6.93,6.93,0,0,1-5.73-5.73,7,7,0,0,1,5.73,5.73M9,0a9,9,0,1,0,9,9A9,9,0,0,0,9,0"/></g></g></svg>