<svg height='100px' width='100px'  fill="#000000" xmlns="http://www.w3.org/2000/svg" viewBox="0 0 100 100" x="0px" y="0px"><path d="M23.8619444,16.1111111 C19.4347222,16.1111111 15.8333333,19.7127778 15.8333333,24.1397222 C15.8333333,28.5666667 19.4347222,32.1683333 23.8619444,32.1683333 L31.8905556,32.1683333 L31.8905556,24.1397222 C31.8905556,19.7127778 28.2891667,16.1111111 23.8619444,16.1111111 L23.8619444,16.1111111 Z M67.9477778,32.1683333 L75.9763889,32.1683333 C80.4033333,32.1683333 84.005,28.5666667 84.005,24.1397222 C84.005,19.7127778 80.4033333,16.1111111 75.9763889,16.1111111 C71.5494444,16.1111111 67.9477778,19.7127778 67.9477778,24.1397222 L67.9477778,32.1683333 Z M41.8905556,57.8533333 L57.9477778,57.8533333 L57.9477778,42.1680556 L41.8905556,42.1680556 L41.8905556,57.8533333 Z M23.8619444,67.8533333 C19.4347222,67.8533333 15.8333333,71.455 15.8333333,75.8822222 C15.8333333,80.3088889 19.4347222,83.9105556 23.8619444,83.9105556 C28.2891667,83.9105556 31.8905556,80.3088889 31.8905556,75.8822222 L31.8905556,67.8533333 L23.8619444,67.8533333 Z M67.9477778,67.8533333 L67.9477778,75.8822222 C67.9477778,80.3088889 71.5494444,83.9105556 75.9763889,83.9105556 C80.4033333,83.9105556 84.005,80.3088889 84.005,75.8822222 C84.005,71.455 80.4033333,67.8533333 75.9763889,67.8533333 L67.9477778,67.8533333 Z M75.9763889,93.9105556 C66.0352778,93.9105556 57.9477778,85.8230556 57.9477778,75.8822222 L57.9477778,67.8533333 L41.8905556,67.8533333 L41.8905556,75.8822222 C41.8905556,85.8230556 33.8030556,93.9105556 23.8619444,93.9105556 C13.9208333,93.9105556 5.83333333,85.8230556 5.83333333,75.8822222 C5.83333333,65.9411111 13.9208333,57.8533333 23.8619444,57.8533333 L31.8905556,57.8533333 L31.8905556,42.1683333 L23.8619444,42.1683333 C13.9208333,42.1683333 5.83333333,34.0805556 5.83333333,24.1397222 C5.83333333,14.1988889 13.9208333,6.11111111 23.8619444,6.11111111 C33.8030556,6.11111111 41.8905556,14.1988889 41.8905556,24.1397222 L41.8905556,32.1683333 L57.9477778,32.1683333 L57.9477778,24.1397222 C57.9477778,14.1988889 66.0352778,6.11111111 75.9763889,6.11111111 C85.9172222,6.11111111 94.005,14.1988889 94.005,24.1397222 C94.005,34.0805556 85.9172222,42.1683333 75.9763889,42.1683333 L67.9477778,42.1683333 L67.9477778,57.8533333 L75.9763889,57.8533333 C85.9172222,57.8533333 94.005,65.9411111 94.005,75.8822222 C94.005,85.8230556 85.9172222,93.9105556 75.9763889,93.9105556 L75.9763889,93.9105556 Z"></path></svg>