<svg height='100px' width='100px'  fill="#B30000" xmlns="http://www.w3.org/2000/svg" viewBox="0 0 100 100" x="0px" y="0px"><path d="M78.2449167,71.8 L41.64575,71.8 L47.4160278,61.8055556 L47.4190833,61.8 L60.9243611,61.8 L54.1718611,50.1041667 L59.9451944,40.1041667 L78.2449167,71.8 Z M39.6778611,4.99977778 L52.2070278,26.7011667 L46.4336944,36.7011667 L39.6778611,24.9997778 L18.43175,61.8000556 L31.9428611,61.8000556 L26.1695278,71.8000556 L1.11119444,71.8000556 L39.6778611,4.99977778 Z M46.4305278,60.0986111 L39.67775,48.4027778 L32.92525,60.0986111 L21.3783056,60.0986111 L39.67775,28.4027778 L57.9774722,60.0986111 L46.4369167,60.0986111 L46.4335833,60.1041667 L46.4305278,60.0986111 Z M54.1686111,73.5012778 L65.7158333,73.5012778 L78.245,95.2026667 L1.11111111,95.2026667 L13.6402778,73.5012778 L25.1872222,73.5012778 L18.4316667,85.2026667 L60.9247222,85.2026667 L54.1686111,73.5012778 Z M47.4161111,38.4027778 L59.945,16.7013889 L98.5125,83.5013889 L73.4538889,83.5013889 L67.6802778,73.5013889 L81.1919444,73.5013889 L59.945,36.7013889 L53.1897222,48.4027778 L53.1894444,48.4027778 L47.4158333,38.4027778 L47.4161111,38.4027778 Z M21.3784444,83.5013889 L39.6778889,51.8055556 L45.4481667,61.8 L45.4545556,61.8 L45.4515,61.8055556 L38.699,73.5013889 L52.204,73.5013889 L57.9776111,83.5013889 L21.3784444,83.5013889 Z"></path></svg>