<svg height='100px' width='100px'  fill="#B30000" xmlns="http://www.w3.org/2000/svg" viewBox="0 0 100 100" x="0px" y="0px"><path d="M55.3323056,83.2430556 C56.45175,76.2858333 59.7125833,69.8725 64.7925833,64.7925 C69.8725833,59.7125 76.2859167,56.4519444 83.2431389,55.3322222 C80.9228611,69.6161111 69.6161944,80.9227778 55.3323056,83.2430556 M16.5514722,55.3369444 C30.8314722,57.6586111 42.1350833,68.9622222 44.45675,83.2422222 C30.1764722,80.9208333 18.8728611,69.6169444 16.5514722,55.3369444 M44.45675,16.5513889 C42.1350833,30.8313889 30.8314722,42.135 16.5514722,44.4563889 C18.8728611,30.1763889 30.1764722,18.8730556 44.45675,16.5513889 M68.3531389,49.8813889 C64.4834167,51.915 60.9003611,54.5425 57.7214722,57.7213889 C54.5423056,60.9005556 51.9148056,64.4836111 49.8814722,68.3530556 C45.7411944,60.4891667 39.2786944,54.0313889 31.4111944,49.8969444 C39.2884167,45.7572222 45.7570278,39.2886111 49.8970278,31.4113889 C54.0311944,39.2788889 60.4889722,45.7411111 68.3531389,49.8813889 M83.2423056,44.4566667 C68.9620278,42.1352778 57.6586944,30.8313889 55.3370278,16.5513889 C69.6170278,18.8730556 80.9206389,30.1766667 83.2423056,44.4566667 M49.8970278,6.11111111 C25.7534167,6.11111111 6.11119444,25.7533333 6.11119444,49.8969444 C6.11119444,74.0402778 25.7534167,93.6825 49.8970278,93.6825 C74.0403611,93.6825 93.6825833,74.0402778 93.6825833,49.8969444 C93.6825833,25.7533333 74.0403611,6.11111111 49.8970278,6.11111111"></path></svg>