<svg height='100px' width='100px'  fill="#000000" xmlns="http://www.w3.org/2000/svg" viewBox="0 0 100 100" x="0px" y="0px"><path d="M59.9579444,54.9353889 L39.8482222,54.9353889 C40.0873889,53.3026111 40.2132222,51.6334444 40.2132222,49.9353889 C40.2132222,48.2373333 40.0873889,46.5681667 39.8482222,44.9353889 L59.9579444,44.9353889 C59.7190556,46.5681667 59.5932222,48.2373333 59.5932222,49.9353889 C59.5932222,51.6334444 59.7190556,53.3026111 59.9579444,54.9353889 M93.9729444,25.5553889 L93.9729444,15.5553889 C80.3904444,15.5553889 68.6232222,23.4734444 63.0423889,34.9353889 L36.7640556,34.9353889 C31.1829444,23.4734444 19.416,15.5553889 5.83322222,15.5553889 L5.83322222,25.5553889 C13.6243333,25.5553889 20.5732222,29.2292778 25.0393333,34.9353889 L5.83322222,34.9353889 L5.83322222,44.9353889 L29.6968333,44.9353889 C30.0346111,46.5498333 30.2132222,48.2220556 30.2132222,49.9353889 C30.2132222,51.6487222 30.0346111,53.3209444 29.6968333,54.9353889 L5.83322222,54.9353889 L5.83322222,64.9353889 L25.0396111,64.9353889 C20.5732222,70.6415 13.6243333,74.3153889 5.83322222,74.3153889 L5.83322222,84.3153889 C19.416,84.3153889 31.1829444,76.3973333 36.7640556,64.9353889 L63.0423889,64.9353889 C68.6232222,76.3973333 80.3904444,84.3153889 93.9729444,84.3153889 L93.9729444,74.3153889 C86.1818333,74.3153889 79.2332222,70.6415 74.7668333,64.9353889 L93.9729444,64.9353889 L93.9729444,54.9353889 L70.1096111,54.9353889 C69.7715556,53.3209444 69.5932222,51.6487222 69.5932222,49.9353889 C69.5932222,48.2220556 69.7715556,46.5498333 70.1096111,44.9353889 L93.9729444,44.9353889 L93.9729444,34.9353889 L74.7671111,34.9353889 C79.2332222,29.2292778 86.1818333,25.5553889 93.9729444,25.5553889"></path></svg>