<svg height='100px' width='100px'  fill="#B30000" xmlns="http://www.w3.org/2000/svg" viewBox="0 0 100 100" x="0px" y="0px"><path d="M47.4255556,3.05555556 L47.4255556,24.8255556 L22.5,4.82555556 L22.5,95.2483333 L47.4255556,75.2486111 L47.4255556,97.0183333 L52.4255556,97.0183333 L52.4255556,75.2480556 L77.3511111,95.2483333 L77.3511111,4.82555556 L52.4255556,24.8258333 L52.4255556,3.05555556 L47.4255556,3.05555556 Z M53.9202778,30.0369444 L72.3511111,15.2483333 L72.3511111,28.8375 L62.3883333,36.8316667 L53.9202778,30.0369444 Z M27.5,28.8377778 L27.5,15.2483333 L45.9308333,30.0369444 L37.4627778,36.8316667 L27.5,28.8377778 Z M52.4255556,35.2480556 L58.3936111,40.0369444 L52.4255556,44.8255556 L52.4255556,35.2480556 Z M66.3830556,40.0369444 L72.3511111,35.2483333 L72.3511111,44.8255556 L66.3830556,40.0369444 Z M41.4575,40.0369444 L47.4255556,35.2483333 L47.4255556,44.8255556 L41.4575,40.0369444 Z M27.5,35.2483333 L33.4680556,40.0369444 L27.5,44.8255556 L27.5,35.2483333 Z M53.92,50.0369444 L62.3883333,43.2422222 L70.8566667,50.0369444 L62.3883333,56.8316667 L53.92,50.0369444 Z M28.9947222,50.0369444 L37.4625,43.2422222 L45.9308333,50.0369444 L37.4627778,56.8316667 L28.9947222,50.0369444 Z M52.4255556,55.2483333 L58.3936111,60.0369444 L52.4255556,64.8258333 L52.4255556,55.2483333 Z M41.4575,60.0369444 L47.4255556,55.2483333 L47.4255556,64.8255556 L41.4575,60.0369444 Z M27.5,55.2483333 L33.4683333,60.0369444 L27.5,64.8255556 L27.5,55.2483333 Z M66.3833333,60.0369444 L72.3511111,55.2486111 L72.3511111,64.8255556 L66.3833333,60.0369444 Z M53.9202778,70.0369444 L62.3883333,63.2422222 L72.3511111,71.2363889 L72.3511111,84.8255556 L53.9202778,70.0369444 Z M27.5,71.2363889 L37.4627778,63.2422222 L45.9308333,70.0369444 L27.5,84.8255556 L27.5,71.2363889 Z"></path></svg>