<svg height='100px' width='100px'  fill="#B30000" xmlns="http://www.w3.org/2000/svg" viewBox="0 0 100 100" x="0px" y="0px"><path d="M59.2639722,69.3046944 C60.3136944,68.7988611 61.3086944,68.2088611 62.2464722,67.5499722 L78.2834167,83.5866389 C76.7059167,84.9169167 75.0373056,86.1419167 73.2825833,87.2408056 C66.3150833,91.6041389 58.2678611,93.9105278 50.0106389,93.9105278 L50.0106389,83.9105278 C54.2106389,83.9105278 58.3364722,83.1341389 62.2009167,81.6463611 L60.25175,79.6971944 C56.9728611,80.8346944 53.5420278,81.4105278 50.0106389,81.4105278 C42.7023056,81.4105278 35.9689722,78.9005278 30.6273056,74.6971944 L37.7736944,67.5510833 C41.2445278,69.9799722 45.4625833,71.4105278 50.0106389,71.4105278 C53.2511944,71.4105278 56.3645278,70.7019167 59.2639722,69.3046944 Z M87.241,26.7391667 C91.6043333,33.7066667 93.9104444,41.7536111 93.9104444,50.0108333 L83.9104444,50.0108333 C83.9104444,45.8111111 83.1343333,41.685 81.6462778,37.8208333 L79.6971111,39.77 C80.8346111,43.0486111 81.4104444,46.4794444 81.4104444,50.0108333 C81.4104444,57.3191667 78.9004444,64.0527778 74.6973889,69.3941667 L67.836,62.5327778 L32.1854444,62.5327778 L16.4348889,78.2833333 C15.1048889,76.7058333 13.8796111,75.0375 12.7807222,73.2825 C8.41738889,66.315 6.111,58.2677778 6.111,50.0108333 L16.111,50.0108333 C16.111,54.2105556 16.8873889,58.3366667 18.3754444,62.2008333 L20.3243333,60.2516667 C19.1868333,56.9727778 18.611,53.5422222 18.611,50.0108333 C18.611,42.7022222 21.121,35.9688889 25.3243333,30.6275 L32.4707222,37.7736111 C30.0418333,41.2444444 28.611,45.4625 28.611,50.0108333 C28.611,53.1019444 29.2573889,56.0769444 30.5298889,58.8613889 L47.9368333,28.7113889 C45.4404444,28.9502778 43.0329444,29.6205556 40.7579444,30.7169444 C39.7076667,31.2230556 38.7129444,31.8127778 37.7748889,32.4716667 L21.7385,16.435 C23.316,15.1047222 24.9843333,13.8797222 26.7393333,12.7808333 C33.7065556,8.4175 41.7537778,6.11111111 50.0107222,6.11111111 L50.0107222,16.1111111 C45.811,16.1111111 41.6851667,16.8872222 37.8207222,18.3752778 L39.7698889,20.3244444 C43.0487778,19.1869444 46.4793333,18.6111111 50.0107222,18.6111111 C57.3196111,18.6111111 64.0526667,21.1211111 69.3940556,25.3241667 L62.2479444,32.4705556 C59.3121111,30.4158333 55.8401667,29.0794444 52.0868333,28.7152778 L69.4893333,58.8575 C70.7215556,56.16 71.4104444,53.165 71.4104444,50.0108333 C71.4104444,46.7705556 70.7018333,43.6572222 69.3046111,40.7575 C68.7987778,39.7077778 68.2087778,38.7130556 67.5501667,37.775 L83.5865556,21.7383333 C84.9168333,23.3155556 86.1418333,24.9844444 87.241,26.7391667 Z M45.7307222,52.5327778 L54.291,52.5327778 L50.0107222,45.1194444 L45.7307222,52.5327778 Z"></path></svg>