<svg height='100px' width='100px'  fill="#000000" xmlns="http://www.w3.org/2000/svg" viewBox="0 0 100 100" x="0px" y="0px"><path d="M50.1373611,4.16666667 L30.6876977,23.6166667 L14.7735791,7.70222222 L7.70221154,14.7733333 L23.6163301,30.6877778 L4.16666667,50.1377778 L23.6163301,69.5875 L7.70221154,85.5019444 L14.7735791,92.5727778 L30.6876977,76.6586111 L50.1373611,96.1083333 L69.5873023,76.6586111 L85.5016987,92.5727778 L92.5725107,85.5019444 L76.6583921,69.5875 L96.1083333,50.1377778 L76.6583921,30.6877778 L92.5725107,14.7733333 L85.5016987,7.70222222 L69.5873023,23.6166667 L50.1373611,4.16666667 Z M37.7588889,30.6877778 L50.1375,18.3088889 L62.5163889,30.6877778 L50.1375,43.0663889 L37.7588889,30.6877778 Z M57.2088889,50.1377778 L69.5875,37.7588889 L81.9661111,50.1377778 L69.5875,62.5163889 L57.2088889,50.1377778 Z M18.3088889,50.1377778 L30.6877778,37.7588889 L43.0663889,50.1377778 L30.6877778,62.5163889 L18.3088889,50.1377778 Z M37.7588889,69.5875 L50.1375,57.2086111 L62.5163889,69.5875 L50.1375,81.9661111 L37.7588889,69.5875 Z"></path></svg>