<svg height='100px' width='100px'  fill="#B30000" xmlns="http://www.w3.org/2000/svg" viewBox="0 0 100 100" x="0px" y="0px"><path d="M55,61.4287778 L55,54.9757222 L61.4530556,54.9757222 C60.1916667,57.8535 57.8777778,60.1673889 55,61.4287778 L55,61.4287778 Z M38.5469444,54.9757222 L45,54.9757222 L45,61.4287778 C42.1222222,60.1676667 39.8083333,57.8537778 38.5469444,54.9757222 L38.5469444,54.9757222 Z M45,38.5226667 L45,44.9757222 L38.5469444,44.9757222 C39.8083333,42.0976667 42.1222222,39.7837778 45,38.5226667 L45,38.5226667 Z M61.4530556,44.9757222 L55,44.9757222 L55,38.5226667 C57.8777778,39.7837778 60.1916667,42.0979444 61.4530556,44.9757222 L61.4530556,44.9757222 Z M80,44.976 L80,44.9757222 L71.9330556,44.9757222 C70.0191667,36.5782222 63.3975,29.9565556 55,28.0426667 L55,4.99988889 L45,4.99988889 L45,28.0426667 C36.6025,29.9565556 29.9808333,36.5779444 28.0669444,44.9757222 L20,44.9757222 L20,44.976 L15,44.976 L15,72.476 L25,72.476 L25,54.9757222 L28.0669444,54.9757222 C29.9808333,63.3732222 36.6025,69.9948889 45,71.9087778 L45,94.9998889 L55,94.9998889 L55,71.9087778 C63.3975,69.9948889 70.0191667,63.3732222 71.9330556,54.9757222 L75,54.9757222 L75,72.476 L85,72.476 L85,44.976 L80,44.976 Z"></path></svg>