<svg height='100px' width='100px'  fill="#B30000" xmlns="http://www.w3.org/2000/svg" viewBox="0 0 100 100" x="0px" y="0px"><path d="M75.9181111,19.3811111 C82.5028333,27.6113889 86.1286667,38.4891667 86.1286667,50.0108333 C86.1286667,61.5322222 82.5028333,72.4102778 75.9181111,80.6408333 C69.0725556,89.1977778 59.8711667,93.9105556 50.0089444,93.9105556 C40.1467222,93.9105556 30.9453333,89.1977778 24.0995,80.6408333 C17.5147778,72.4102778 13.8889444,61.5322222 13.8889444,50.0108333 C13.8889444,38.4891667 17.5147778,27.6113889 24.0995,19.3811111 C30.9453333,10.8238889 40.1467222,6.11111111 50.0089444,6.11111111 C59.8711667,6.11111111 69.0725556,10.8238889 75.9181111,19.3811111 Z M50.0089444,83.9105556 C64.4114444,83.9105556 76.1286667,68.7033333 76.1286667,50.0108333 C76.1286667,31.3183333 64.4114444,16.1111111 50.0089444,16.1111111 C35.6061667,16.1111111 23.8889444,31.3183333 23.8889444,50.0108333 C23.8889444,68.7033333 35.6061667,83.9105556 50.0089444,83.9105556 Z M60.8245556,45.0108889 L69.684,45.0108889 L69.684,55.0108889 L60.8245556,55.0108889 L54.9326111,60.9028333 L55.0087222,69.6425556 L45.0092778,69.7292222 L44.9326111,60.9389444 L39.0048333,55.0108889 L30.3337222,55.0108889 L30.3337222,45.0108889 L39.0048333,45.0108889 L45.009,39.0067222 L45.009,30.3356111 L55.009,30.3356111 L55.009,39.1950556 L60.8245556,45.0108889 Z M49.9148333,51.7783889 L51.6823333,50.0108889 L49.9148333,48.2428333 L48.1470556,50.0108889 L49.9148333,51.7783889 Z"></path></svg>