<svg height='100px' width='100px'  fill="#B30000" xmlns="http://www.w3.org/2000/svg" viewBox="0 0 100 100" x="0px" y="0px"><path d="M24.9777778,5 L24.9777778,24.9775 L5,24.9775 L5,74.9330556 L24.9838889,74.9330556 L24.9755556,94.9105556 L74.9330556,94.9105556 L74.9330556,74.9330556 L94.9108333,74.9330556 L94.9108333,24.9775 L74.9330556,24.9775 L74.9330556,5 L24.9777778,5 Z M34.9777778,15 L64.9330556,15 L64.9330556,24.9775 L44.9555556,24.9775 L44.9555556,29.9775 L44.9555556,44.9552778 L34.9777778,44.9552778 L34.9777778,15 Z M54.9555556,34.9775 L84.9108333,34.9775 L84.9108333,64.9330556 L74.9330556,64.9330556 L74.9330556,44.9552778 L69.9330556,44.9552778 L54.9555556,44.9552778 L54.9555556,34.9775 Z M15,34.9775 L24.9777778,34.9775 L24.9777778,54.9552778 L29.9777778,54.9552778 L44.9555556,54.9552778 L44.9555556,64.9330556 L15,64.9330556 L15,34.9775 Z M34.9838889,74.9330556 L54.9555556,74.9330556 L54.9555556,69.9330556 L54.9555556,54.9552778 L64.9330556,54.9552778 L64.9330556,84.9105556 L34.98,84.9105556 L34.9838889,74.9330556 Z"></path></svg>