<svg height='100px' width='100px'  fill="#B30000" xmlns="http://www.w3.org/2000/svg" viewBox="0 0 100 100" x="0px" y="0px"><path d="M93.8852222,50.4300278 C93.8755,51.4825278 93.8282778,52.53475 93.7435556,53.5844722 C93.7435556,53.5866944 93.7432778,53.5889167 93.743,53.5911389 C93.3177222,58.8703056 91.9510556,64.0841944 89.6327222,68.93725 L89.6202222,68.9311389 C88.6388333,70.9905833 87.4921667,72.9900278 86.1721667,74.9058611 L79.4668889,68.2005833 L52.2916111,41.0253056 L59.3627222,33.9541944 L83.0293889,57.6208611 C84.1074444,52.9091944 84.1707778,48.0119722 83.2188333,43.2786389 L77.7207778,48.7766944 L70.6496667,41.7055833 L79.3424444,33.0128056 C79.3374444,33.0041944 79.3327222,32.9950278 79.3277222,32.9864167 L86.5868889,25.7275278 C87.5466111,27.1725278 88.4088333,28.6633611 89.1796667,30.1889167 L89.1899444,30.1836389 C91.3802222,34.5105833 92.8021667,39.1500278 93.4613333,43.8833611 C93.4660556,43.9178056 93.4710556,43.9519722 93.4755,43.9861389 C93.6877222,45.5355833 93.8182778,47.0944722 93.8660556,48.6564167 C93.8682778,48.7344722 93.8696667,48.81225 93.8718889,48.8903056 C93.8832778,49.3428056 93.888,49.7955833 93.8857778,50.2483611 C93.8852222,50.3086389 93.8857778,50.3691944 93.8852222,50.4300278 Z M32.3436111,21.07725 L25.1158333,13.8494722 C27.0319444,12.5291944 29.0311111,11.37975 31.0905556,10.3986389 L31.0858333,10.3883611 C36.9441667,7.59002778 43.4883333,6.11113889 50.0111111,6.11113889 C56.5338889,6.11113889 63.0780556,7.59030556 68.9363889,10.3886389 L68.9280556,10.4058611 C71.2047222,11.4905833 73.4094444,12.77475 75.5077778,14.2736389 L70.8297222,18.9516944 L68.3091667,21.47225 L41.0252778,48.7561389 L33.9541667,41.6850278 L58.4497222,17.1891944 C57.7269444,17.00475 56.9988889,16.8444722 56.2669444,16.7080833 C56.2091667,16.69725 56.1511111,16.68725 56.0930556,16.6766944 C55.8130556,16.6261389 55.5322222,16.5800278 55.2513889,16.5364167 C55.1291667,16.5175278 55.0075,16.4986389 54.885,16.4811389 C54.6766667,16.4511389 54.4677778,16.4250278 54.2591667,16.3986389 C53.5127778,16.3061389 52.7641667,16.2364167 52.0138889,16.1930833 C51.9616667,16.18975 51.9097222,16.1861389 51.8575,16.1830833 C51.5844444,16.1686389 51.3111111,16.1578056 51.0377778,16.14975 C50.9825,16.1480833 50.9269444,16.1466944 50.8716667,16.1450278 C50.5886111,16.1380833 50.3052778,16.1336389 50.0219444,16.1336389 C50.0077778,16.1336389 49.9936111,16.1339167 49.9794444,16.1339167 C49.1105556,16.13475 48.2419444,16.16975 47.3755556,16.2358611 C47.2919444,16.2425278 47.2086111,16.2478056 47.125,16.2550278 C46.9094444,16.2730833 46.6938889,16.2944722 46.4788889,16.3166944 C46.3225,16.3328056 46.1666667,16.34975 46.0102778,16.3680833 C45.8383333,16.3883611 45.6663889,16.4091944 45.4944444,16.4316944 C45.2338889,16.4664167 44.9738889,16.5041944 44.7141667,16.5450278 C44.6391667,16.5566944 44.5636111,16.5669722 44.4886111,16.5791944 C43.7886111,16.6936389 43.0922222,16.83225 42.3991667,16.9908611 L48.7561111,23.3475278 L41.685,30.4186389 L32.3436111,21.07725 Z M70.3166944,81.5831667 L74.9058611,86.1723333 C72.9894722,87.4926111 70.9894722,88.6395556 68.92975,89.6212222 L68.9355833,89.6337222 C63.07725,92.4317778 56.5325278,93.9109444 50.00975,93.9109444 C43.4866944,93.9106667 36.9425278,92.4315 31.0839167,89.6328889 L31.0905833,89.6187222 C29.24975,88.7415 27.4555833,87.7348333 25.7275278,86.5867778 L32.9864167,79.3278889 C32.9953056,79.3326111 33.0039167,79.3373333 33.0128056,79.3426111 L60.0430833,52.3120556 L67.1141944,59.3831667 L43.2783611,83.219 C43.3939167,83.2420556 43.5089167,83.2684444 43.6244722,83.2903889 C43.6533611,83.2959444 43.6819722,83.3006667 43.7108611,83.3059444 C44.0066944,83.3615 44.3036389,83.4120556 44.6008611,83.4598333 C44.7400278,83.4817778 44.87975,83.5026111 45.0191944,83.5228889 C45.1991944,83.5495556 45.37975,83.5742778 45.5600278,83.5981667 C45.7528056,83.6231667 45.9461389,83.6478889 46.1394722,83.6695556 C46.2483611,83.6820556 46.35725,83.6926111 46.4664167,83.704 C47.9439167,83.8565 49.4303056,83.9151111 50.9144722,83.8762222 C50.9386389,83.8753889 50.9628056,83.8748333 50.9869722,83.874 C51.2800278,83.8659444 51.5725278,83.854 51.8650278,83.8381667 C51.8953056,83.8365 51.9250278,83.8345556 51.9550278,83.8328889 C52.7258611,83.7892778 53.4950278,83.7178889 54.2614167,83.6228889 C54.42975,83.6017778 54.5980833,83.5823333 54.7661389,83.5587222 C54.8900278,83.5415 55.0136389,83.5212222 55.1375278,83.5023333 C55.3853056,83.4648333 55.6328056,83.4265 55.8794722,83.3831667 C55.9575278,83.3701111 56.0353056,83.3553889 56.1130833,83.3415 C56.4358611,83.2828889 56.7580833,83.2209444 57.07975,83.1528889 C57.0875278,83.1515 57.0953056,83.1498333 57.1036389,83.1481667 C57.2764167,83.1115 57.4483611,83.069 57.6208611,83.0292778 L52.31225,77.7206667 L59.3830833,70.6498333 L67.6780833,78.9445556 L68.7280833,79.9945556 L70.3166944,81.5831667 Z M23.3475833,52.2917222 L30.4186944,59.3628333 L21.4723056,68.3089444 L18.95175,70.8295 L14.2734167,75.5078333 C12.7748056,73.4095 11.4906389,71.2053333 10.4061944,68.9292222 L10.3889722,68.9372778 C7.59036111,63.0786667 6.11119444,56.5339444 6.11119444,50.0106111 C6.11119444,43.4875556 7.59008333,36.9428333 10.3889722,31.0845 L10.39925,31.0895 C11.3803611,29.0303333 12.5295278,27.0317222 13.8495278,25.1158889 L18.4386944,29.7050556 L20.5695278,31.8358889 L21.0770278,32.3436667 L48.7764722,60.0428333 L41.7053611,67.1139444 L16.9906389,42.3995 C16.8323056,43.0917222 16.6939722,43.7878333 16.57925,44.4872778 C16.56675,44.5647778 16.5561944,44.6422778 16.54425,44.7195 C16.5036944,44.977 16.4664722,45.2347778 16.4320278,45.4928333 C16.4089722,45.6658889 16.3881389,45.8392222 16.3678611,46.0128333 C16.3498056,46.167 16.3331389,46.3214444 16.31675,46.4758889 C16.2945278,46.6928333 16.2728611,46.9095 16.2548056,47.1267222 C16.2478611,47.2075556 16.2428611,47.2886667 16.2361944,47.3695 C16.1698056,48.2400556 16.13425,49.1128333 16.1336944,49.9853333 C16.1336944,49.9967222 16.1334167,50.0081111 16.1334167,50.0195 C16.1334167,50.3047778 16.1381389,50.5900556 16.1450833,50.8750556 C16.1464722,50.9281111 16.1478611,50.9811667 16.1495278,51.0342222 C16.1575833,51.3092222 16.1684167,51.5839444 16.1831389,51.8586667 C16.1859167,51.9086667 16.1895278,51.9583889 16.1925833,52.0081111 C16.2359167,52.7617222 16.3061944,53.5136667 16.39925,54.2636667 C16.4253611,54.4703333 16.4511944,54.677 16.4806389,54.8831111 C16.4984167,55.007 16.5178611,55.1308889 16.53675,55.2545 C16.5803611,55.5333889 16.6259167,55.8122778 16.6761944,56.0903333 C16.68675,56.1497778 16.6973056,56.2095 16.7084167,56.2686667 C16.8445278,56.9997778 17.0048056,57.7272778 17.18925,58.4497778 L23.3475833,52.2917222 Z"></path></svg>