<svg height='100px' width='100px'  fill="#B30000" xmlns="http://www.w3.org/2000/svg" viewBox="0 0 100 100" x="0px" y="0px"><path d="M55.0111111,73.6219444 L55.0111111,55.2522222 L73.3805556,55.2522222 C71.42,64.4247222 64.1836111,71.6613889 55.0111111,73.6219444 L55.0111111,73.6219444 Z M26.6416667,55.2522222 L45.0111111,55.2522222 L45.0111111,73.6219444 C35.8386111,71.6613889 28.6022222,64.4247222 26.6416667,55.2522222 L26.6416667,55.2522222 Z M45.0111111,26.8830556 L45.0111111,45.2522222 L26.6416667,45.2522222 C28.6022222,36.0802778 35.8388889,28.8436111 45.0111111,26.8830556 L45.0111111,26.8830556 Z M73.3805556,45.2522222 L55.0111111,45.2522222 L55.0111111,26.8830556 C64.1833333,28.8436111 71.42,36.0802778 73.3805556,45.2522222 L73.3805556,45.2522222 Z M93.9105556,45.2522222 L83.5413889,45.2522222 C81.3591667,30.5547222 69.7088889,18.9044444 55.0111111,16.7222222 L55.0111111,6.11111111 L45.0111111,6.11111111 L45.0111111,16.7222222 C30.3133333,18.9044444 18.6630556,30.5547222 16.4808333,45.2522222 L6.11111111,45.2522222 L6.11111111,55.2522222 L16.4808333,55.2522222 C18.6630556,69.9502778 30.3133333,81.6005556 45.0111111,83.7827778 L45.0111111,93.9108333 L55.0111111,93.9108333 L55.0111111,83.7827778 C69.7088889,81.6005556 81.3591667,69.9502778 83.5413889,55.2522222 L93.9105556,55.2522222 L93.9105556,45.2522222 Z"></path></svg>