<svg height='100px' width='100px'  fill="#000000" xmlns="http://www.w3.org/2000/svg" viewBox="0 0 100 100" x="0px" y="0px"><path d="M69.9780556,6.11111111 L57.5391667,27.6563889 L50.0741667,20.1913889 L43.0297222,27.2355556 L30.8333333,6.11111111 L22.1730556,11.1111111 L35.7091667,34.5563889 L20.2777778,49.9875 L35.7266667,65.4363889 L22.1730556,88.9122222 L30.8333333,93.9122222 L43.0469444,72.7572222 L50.0741667,79.7836111 L57.5216667,72.3363889 L69.9780556,93.9122222 L78.6386111,88.9122222 L64.8416667,65.0155556 L79.87,49.9875 L64.8594444,34.9769444 L78.6386111,11.1111111 L69.9780556,6.11111111 Z M48.2061111,36.2016667 L50.0741667,34.3336111 L52.3625,36.6222222 L50.4058333,40.0113889 L48.2061111,36.2016667 Z M34.42,49.9875 L40.8855556,43.5222222 L44.6322222,50.0116667 L40.9030556,56.4705556 L34.42,49.9875 Z M56.1791667,50.0116667 L59.6833333,43.9427778 L65.7277778,49.9875 L59.6655556,56.0497222 L56.1791667,50.0116667 Z M48.2238889,63.7911111 L50.4058333,60.0116667 L52.3447222,63.3702778 L50.0741667,65.6413889 L48.2238889,63.7911111 Z"></path></svg>