<svg height='100px' width='100px'  fill="#B30000" xmlns="http://www.w3.org/2000/svg" viewBox="0 0 100 100" x="0px" y="0px"><path d="M93.1914444,8.84538889 C88.8050556,4.459 81.6681111,4.45927778 77.2817222,8.84511111 L77.2814444,8.84538889 C76.3958889,9.73094444 75.6922778,10.7298333 75.1645,11.7945556 C77.2247778,12.8523333 79.1322778,14.2315 80.8167222,15.9162222 C81.7917222,16.8906667 83.3758889,16.8906667 84.3508889,15.9181667 C84.3517222,15.9176111 84.352,15.9167778 84.3525556,15.9162222 C84.5964444,15.6726111 84.9164444,15.5509444 85.2364444,15.5509444 C85.5567222,15.5509444 85.877,15.6728889 86.1206111,15.9165 C86.6078333,16.4037222 86.6078333,17.1967778 86.1206111,17.6842778 L86.1206111,17.6842778 C84.1706111,19.6337222 80.9986667,19.6337222 79.0495,17.6842778 C75.2717222,13.9067778 70.2495,11.8262222 64.9072778,11.8262222 C59.5650556,11.8262222 54.5425556,13.9067778 50.7653333,17.6842778 C50.4672778,17.9820556 50.1839444,18.2903889 49.9072778,18.6031667 C49.6308889,18.2903889 49.3472778,17.9823333 49.0495,17.6842778 C45.2717222,13.9067778 40.2495,11.8262222 34.9072778,11.8262222 C29.5650556,11.8262222 24.5428333,13.9067778 20.7650556,17.6842778 C18.8158889,19.6337222 15.6436667,19.6334444 13.6939444,17.6842778 L13.6939444,17.6842778 C13.2067222,17.1967778 13.2067222,16.4037222 13.6939444,15.9165 C13.9375556,15.6728889 14.2578333,15.5509444 14.5781111,15.5509444 C14.8981111,15.5509444 15.2181111,15.6726111 15.462,15.9162222 C15.4628333,15.9167778 15.4631111,15.9176111 15.4631111,15.9176111 C16.4386667,16.8906667 18.0231111,16.8906667 18.9978333,15.9162222 C20.6825556,14.2315 22.5897778,12.8523333 24.6500556,11.7945556 C24.1222778,10.7298333 23.4186667,9.73094444 22.5331111,8.84538889 L22.5328333,8.84511111 C18.1464444,4.45927778 11.0095,4.459 6.62311111,8.84538889 C2.23672222,13.2317778 2.23672222,20.3687222 6.62311111,24.7553889 L6.62311111,24.7553889 C12.4717222,30.604 21.9878333,30.6037222 27.8361667,24.7553889 C29.7250556,22.8665 32.2364444,21.8262222 34.9072778,21.8262222 C37.5783889,21.8262222 40.0895,22.8665 41.9783889,24.7553889 C43.8672778,26.644 44.9072778,29.1551111 44.9072778,31.8262222 L44.9072778,84.6259444 L34.9072778,84.6259444 L34.9072778,94.6259444 L44.9072778,94.6259444 L54.9072778,94.6259444 L64.9072778,94.6259444 L64.9072778,84.6259444 L54.9072778,84.6259444 L54.9072778,31.8262222 C54.9072778,29.1553889 55.9475556,26.644 57.8361667,24.7553889 C59.7250556,22.8665 62.2364444,21.8262222 64.9072778,21.8262222 C67.5783889,21.8262222 70.0895,22.8665 71.9783889,24.7553889 C77.8267222,30.6037222 87.3433889,30.6037222 93.1914444,24.7553889 L93.1917222,24.7553889 C97.5778333,20.3687222 97.5778333,13.2317778 93.1914444,8.84538889"></path></svg>