<svg height='100px' width='100px'  fill="#B30000" xmlns="http://www.w3.org/2000/svg" viewBox="0 0 100 100" x="0px" y="0px"><polygon points="53.648 5.833 37.518 21.962 42.822 27.265 46.148 23.94 46.148 40.844 21.391 16.087 21.391 38.897 28.891 38.897 28.891 34.194 40.844 46.148 5.833 46.148 21.962 62.276 27.265 56.973 23.94 53.648 40.844 53.648 16.088 78.404 38.897 78.404 38.897 70.904 34.194 70.904 46.148 58.951 46.148 93.961 62.276 77.832 56.973 72.529 53.648 75.855 53.648 58.951 78.404 83.707 78.404 60.897 70.904 60.897 70.904 65.601 58.951 53.648 93.961 53.648 77.832 37.519 72.529 42.822 75.855 46.148 58.951 46.148 83.707 21.391 60.897 21.391 60.897 28.891 65.601 28.891 53.648 40.844"></polygon></svg>