<svg height='100px' width='100px'  fill="#B30000" xmlns="http://www.w3.org/2000/svg" viewBox="0 0 100 100" x="0px" y="0px"><path d="M73.7502778,71.8110556 C79.7188889,75.2574444 81.7713889,82.9171667 78.3252778,88.8863333 C76.6558333,91.7777222 73.9602778,93.8460556 70.7352778,94.7105 C69.6586111,94.9991111 68.5652778,95.1416111 67.4797222,95.1416111 C65.3133333,95.1416111 63.1763889,94.5735556 61.25,93.4616111 C55.8777778,90.3602222 54.0305556,83.4663333 57.1319444,78.0938333 L57.1322222,78.0935556 L57.7322222,77.0543889 L66.3922222,82.0549444 L65.7925,83.0938333 C65.5783333,83.4643889 65.6063889,83.8141111 65.6675,84.0421667 C65.7286111,84.2705 65.8791667,84.5871667 66.25,84.8013333 L66.2502778,84.8016111 C67.0302778,85.2518889 67.7733333,85.1510556 68.1469444,85.0510556 C68.5205556,84.9510556 69.2144444,84.6666111 69.6647222,83.8866111 C70.3538889,82.6924444 69.9436111,81.1605 68.75,80.4713333 L34.9986111,60.9849444 L34.9947222,60.9827222 C25.7458333,55.6318889 20,45.6757778 20,34.9999444 C20,18.458 33.4577778,4.99994444 50,4.99994444 C66.5422222,4.99994444 80,18.458 80,34.9999444 C80,45.5416111 74.395,55.3785556 65.3491667,60.7757778 L65.3511111,60.7788333 L65.1786111,60.8785556 C65.12,60.913 65.0630556,60.9491111 65.0044444,60.9832778 L65.0025,60.9802222 L62.4966667,62.4271667 L52.4972222,56.6541111 L60.1594444,52.2293889 C66.2333333,48.6377222 70,42.0549444 70,34.9999444 C70,23.9718889 61.0280556,14.9999444 50,14.9999444 C38.9719444,14.9999444 30,23.9718889 30,34.9999444 C30,42.1168889 33.8311111,48.7543889 39.9986111,52.3246667 L73.75,71.8107778 L73.7502778,71.8110556 Z M31.25,80.4709722 C30.0561111,81.1604167 29.6458333,82.6923611 30.335,83.88625 C30.7852778,84.6665278 31.4791667,84.9509722 31.8527778,85.0509722 C32.2266667,85.1518056 32.9691667,85.2515278 33.75,84.80125 L33.75,84.8015278 C34.3466667,84.4565278 34.5522222,83.6906944 34.2072222,83.09375 L34.2072222,83.0934722 L33.5822222,82.0109722 L42.2427778,77.0115278 L42.8677778,78.09375 C45.9691667,83.4659722 44.1219444,90.3601389 38.75,93.4615278 L38.75,93.4618056 C36.8238889,94.57375 34.6861111,95.1415278 32.5202778,95.1415278 C31.4344444,95.1415278 30.3413889,94.9990278 29.2647222,94.7104167 C26.0394444,93.8459722 23.3438889,91.7776389 21.6744444,88.8859722 C18.2283333,82.9173611 20.2808333,75.2573611 26.2497222,71.81125 L26.2494444,71.8109722 L37.4986111,65.3148611 L47.4980556,71.0884722 L31.25,80.4709722 Z"></path></svg>